PathFileType	4	(X/Y/Z)	C:\Users\°ÂÌØÂü\Desktop\20210112\bx_y_0_902-Unnamed.trc
DataRate	CameraRate	NumFrames	NumMarkers	Units	OrigDataRate	OrigDataStartFrame	OrigNumFrames
50.00	50.00	       9	0	mm	50.00	408	       466
Frame#	Time	
		

408	8.140	-719.62317	116.34696	1850.58630	-690.77869	-52.94003	717.99084	-717.51727	247.06529	646.02063	-587.73584	-12.09382	1048.73584	-694.06189	78.24117	575.35999	-575.70862	211.31720	812.06665				-672.11804	203.90102	532.10822	-766.31622	252.48412	504.62653	-663.96295	-67.70547	163.03615	-573.61932	215.56279	1068.48108	-603.43005	20.14849	166.23274	-675.46405	54.64338	157.67615	-711.06946	151.32591	216.22974	-795.89844	172.29828	184.25296	-770.73804	222.10257	206.08447	-594.59430	222.00551	172.96153	-882.62744	296.13040	144.63702	-560.46637	260.90778	166.12207	-667.04437	299.20724	160.06726	-629.90057	307.27542	162.37018	-528.19830	304.30228	146.37737	-688.02289	-71.38201	1550.76318	-784.52911	96.36576	1058.02490	-767.58051	-5.70724	207.65741	-794.70532	55.12444	174.71640	-765.52380	-38.19192	489.07999	-558.84039	-37.83435	162.81039	-876.00024	-78.86822	141.17453	-724.80420	243.44281	578.62866	-717.11847	-27.48206	567.61407	-675.13342	172.99902	156.18327	-622.28271	-78.48566	158.35403	-631.60333	276.88281	876.36658	-683.47931	269.72348	747.47125	-517.50354	-72.69761	142.88486	-583.16547	-3.39525	801.26465	-717.86414	77.45821	217.40140	-670.03040	17.64359	519.37537	-694.79376	293.19476	1538.52637	-686.07770	141.94716	572.16815							-700.78094	-30.45282	614.61481	-651.79590	-72.49654	857.78821	
409	8.160	-719.67554	116.97782	1850.64734	-690.92413	-52.68740	717.92798	-717.81580	247.42912	645.98334	-587.76563	-11.99517	1048.96936	-694.31134	78.42698	575.35156	-575.79095	211.57567	812.20850				-672.11804	203.90102	532.10822	-766.28149	252.57889	504.62802	-664.08105	-67.58957	162.96223	-573.93744	215.81435	1068.61743	-603.51074	20.16311	166.35522	-675.55109	55.00300	157.50032	-711.03510	151.38846	216.30571	-795.90631	172.15268	184.03235	-770.47968	221.96017	205.91798	-594.38989	222.31042	173.01799	-882.67053	296.19333	144.58157	-560.48511	260.94363	166.13222	-666.96313	299.27505	159.96176	-629.90057	307.27542	162.37018	-528.20660	304.21338	146.40298	-688.46790	-71.09090	1550.76135	-784.84918	96.67165	1057.79138	-767.67035	-5.51713	207.69090	-794.75031	55.24262	174.79773	-765.98413	-38.27798	489.42300	-558.74414	-37.94191	162.73338	-876.00970	-78.74700	141.30463	-724.88202	243.73767	578.40521	-717.14734	-27.42461	567.58160	-675.09491	172.61928	156.43414	-622.31805	-78.27342	158.23404	-631.73785	276.78928	876.40515	-683.60449	270.21118	747.40204	-517.49689	-72.69339	142.66356	-583.66473	-2.66301	801.44281	-717.87677	77.56815	217.23767	-670.07135	17.64873	519.48608	-695.17993	293.79678	1538.20313	-686.18066	141.91460	572.24963							-701.30225	-30.15920	614.53564	-651.82837	-72.43629	857.90070	
410	8.180	-719.84912	117.63216	1850.72229	-691.17590	-52.41309	717.74304	-717.87048	247.37993	646.02484	-588.12085	-12.01659	1049.55286	-694.31134	78.42698	575.35156	-575.93774	211.81111	812.46405				-672.11804	203.90102	532.10822	-766.35590	252.76828	504.55545	-664.02643	-67.55660	162.86536	-574.46692	215.79024	1068.64441	-603.51074	20.16311	166.35522	-675.86578	54.96586	157.31175	-711.11865	151.51195	216.48851	-796.02808	172.17024	184.11113	-770.62952	221.89191	206.00780	-594.45880	222.33273	173.16608	-882.66003	296.11053	144.51537	-560.57324	260.81839	166.05962	-666.93140	299.14301	160.03610	-629.88843	307.39404	162.51454	-528.09418	304.35834	146.31961	-689.20203	-70.75914	1550.73364	-785.41296	96.81955	1057.82617	-767.50635	-5.69560	207.61674	-794.70776	55.32232	174.77234	-766.11829	-38.14272	489.29465	-558.86365	-37.77508	162.84885	-875.82855	-78.79845	141.17526	-725.23523	244.15544	578.56396	-717.25812	-27.40539	567.43036	-675.26471	172.81590	156.31595	-622.23914	-78.28430	158.34659	-632.00000	276.84854	876.39899	-683.94214	269.48184	746.96881	-517.47491	-72.78714	142.86714	-583.72900	-2.58916	801.55914	-718.20996	77.48013	217.75931	-670.23755	17.62242	519.75568	-695.56586	293.91891	1538.10071	-686.23926	141.76823	572.08264							-701.70331	-29.89360	614.44873	-652.08942	-72.49204	858.15594	
411	8.200	-719.87817	117.96693	1850.72412	-691.54504	-52.27473	717.56580	-718.02057	247.46046	646.08362	-589.10797	-11.46216	1049.19641	-694.57056	78.67387	575.14758	-576.34229	211.77173	812.15881				-672.12946	203.91582	532.09753	-766.71228	252.92329	504.89041	-663.97571	-67.52091	162.99596	-574.72156	216.28917	1068.45239	-603.46631	20.22577	166.23068	-675.55109	55.00300	157.50032	-711.13348	151.42664	216.20949	-795.95197	172.14114	184.18456	-770.73193	221.93298	206.01299	-594.47784	222.17722	173.04742	-882.57306	296.26233	144.70799	-560.57324	260.81839	166.05962	-667.04437	299.20724	160.06726	-629.88843	307.39404	162.51454	-528.18848	304.32135	146.28058	-689.63922	-70.41659	1550.68835	-785.68500	97.24246	1057.77734	-767.48438	-5.64106	207.64685	-794.68091	55.11303	175.04170	-766.27545	-38.21531	489.41718	-558.81482	-37.89694	162.73341	-875.82855	-78.79845	141.17526	-725.15424	244.22963	578.41333	-717.40192	-27.22611	567.32190	-675.12555	172.90623	156.03625	-622.17957	-78.30473	158.34941	-632.07306	276.97516	876.17993	-684.08838	269.30710	746.75037	-517.58014	-72.66848	142.99370	-583.93915	-2.73047	801.60333	-718.20996	77.48013	217.75931	-670.30780	17.70802	519.88989	-695.81281	294.29547	1537.87610	-686.96326	141.97472	571.69879							-701.72620	-29.89021	614.44568	-652.78809	-72.00375	857.59399	
412	8.220	-719.87305	118.25845	1850.70935	-690.76898	-51.61825	717.52185	-718.12103	247.66968	645.89630	-589.48236	-11.23173	1049.35889	-694.48676	78.60495	575.25940	-576.39325	211.94833	812.23859				-672.25531	203.99474	532.00977	-766.97253	253.10591	504.80475	-664.09467	-67.53877	162.97404	-575.51288	215.96805	1068.17676	-603.51074	20.16311	166.35522	-675.63721	55.02827	157.36992	-711.06946	151.32591	216.22974	-795.92181	172.19341	184.12724	-770.64423	222.02910	206.12590	-594.59430	222.00551	172.96153	-882.62518	296.03879	144.44261	-560.47833	260.88022	166.20224	-666.93140	299.14301	160.03610	-629.88843	307.39404	162.51454	-528.19574	304.52661	146.42821	-689.92889	-70.09407	1550.62891	-785.96960	97.53041	1057.70642	-767.56580	-5.74268	207.61626	-794.70300	55.27161	174.69165	-764.39130	-36.88742	488.42859	-558.85950	-37.88050	162.62567	-875.61420	-78.86797	141.32495	-725.31683	244.35678	578.50372	-717.52948	-26.99051	567.28284	-675.12555	172.90623	156.03625	-622.23914	-78.28430	158.34659	-632.23077	277.02032	876.09332	-684.06769	269.57224	747.16669	-517.58032	-72.68354	142.99287	-584.48596	-2.44079	801.39807	-717.78412	77.77363	217.16264	-670.52325	17.86922	519.86450	-696.20569	294.57446	1537.90393	-686.66394	142.31535	571.87250							-702.15137	-29.64713	614.38251	-653.31073	-71.84762	857.94238	
413	8.240	-720.07349	118.76872	1850.71606	-690.97980	-51.48682	717.42468	-718.04041	247.81157	645.96863	-590.10431	-10.77072	1049.06592	-694.68793	78.84579	574.98969	-576.55536	211.86491	812.29260				-672.25531	203.99474	532.00977	-766.97552	253.13614	504.82953	-663.91589	-67.72828	163.04291	-575.68030	216.10822	1068.33875	-603.46631	20.22577	166.23068	-675.65155	54.77036	157.44592	-711.03583	151.47220	216.42397	-795.92181	172.19341	184.12724	-770.64856	221.96182	206.05035	-594.39154	222.15800	173.12288	-882.66956	296.13403	144.68401	-560.51935	260.83688	166.14552	-667.00098	299.21017	159.98860	-629.81641	307.40176	162.45502	-528.20660	304.21338	146.40298	-690.48914	-69.72775	1550.77258	-786.31506	97.94781	1057.80225	-767.58301	-5.65719	207.70662	-794.84082	55.22879	174.67625	-764.34650	-36.84284	488.56467	-558.94019	-37.82638	162.88402	-875.61420	-78.86797	141.32495	-725.41473	244.47002	578.13440	-717.72174	-26.93237	567.36438	-675.12878	173.18155	155.77563	-622.31836	-78.21971	158.28050	-632.33105	277.17786	876.05048	-684.00354	269.99469	746.96069	-517.53790	-72.76075	143.09290	-584.61761	-2.54105	801.29877	-717.78412	77.77363	217.16264	-670.64056	18.06711	520.04968	-696.47443	294.99008	1537.85583	-686.97461	142.69952	571.85583							-702.24036	-29.70475	614.56293	-653.46423	-71.98333	858.26160	
414	8.260	-720.25098	119.12997	1850.65039	-691.13025	-51.48095	717.31195	-718.07501	248.27385	646.10797	-590.72498	-11.04181	1049.34741	-694.47516	78.90305	574.88690	-576.62750	212.21356	812.24030				-672.33545	204.35495	532.20734	-767.09064	253.10027	504.69073	-664.01166	-67.72729	162.75977	-575.44403	216.35338	1068.48572	-603.39844	20.30065	166.19682	-675.67981	54.77396	157.46635	-711.11072	151.61383	216.31509	-795.90802	172.20782	183.97916	-770.74274	222.21333	206.10982	-594.32019	222.07607	173.18674	-882.71173	296.15213	144.50174	-560.45386	260.78378	166.14192	-667.00098	299.21017	159.98860	-629.88843	307.39404	162.51454	-528.19830	304.30228	146.37737	-691.01434	-69.56766	1550.64050	-786.96033	98.05856	1057.64258	-767.38641	-5.58722	207.61972	-794.63794	55.14451	174.63782	-764.54517	-36.74001	488.61014	-558.78125	-37.97739	162.57178	-875.98657	-78.65415	141.42352	-725.59692	244.61971	578.14233	-717.85974	-26.61119	567.34021	-675.29407	172.67120	156.48770	-622.27246	-78.17785	158.09421	-632.31287	277.10941	876.17694	-684.12775	270.33432	747.11725	-517.54578	-72.60535	142.78564	-584.77191	-2.47787	801.81647	-717.67883	77.86914	217.25125	-670.83337	17.99960	520.09430	-696.73547	295.19464	1537.85559	-687.19666	142.53230	571.86969							-702.30634	-29.71037	614.47217	
415	8.280	-720.49860	119.45764	1850.59607	-691.19934	-51.08265	717.11145	-718.27020	248.10324	645.97321	-590.81989	-10.75901	1049.64600	-694.34906	79.14848	575.21234	-576.78827	212.28419	812.22876	-654.26978	-71.27969	858.34753	-672.52588	204.40941	532.07831	-766.69220	253.10344	504.18976	-664.04224	-67.55954	163.07280	-575.84302	216.35071	1068.32532	-603.51074	20.16311	166.35522	-675.51111	54.85435	157.37286	-711.11865	151.51195	216.48851	-795.92181	172.19341	184.12724	-770.72760	222.11845	206.01172	-594.47784	222.17722	173.04742	-882.70166	296.16635	144.50797	-560.51190	260.71228	166.16150	-666.95007	299.17007	160.06668	-629.88843	307.39404	162.51454	-528.12280	304.28763	146.42749	-691.39856	-69.39230	1550.73279	-787.12238	98.25557	1057.25500	-767.57947	-5.44139	207.65048	-794.68341	55.30281	174.52777	-764.47021	-36.43652	488.42422	-558.93567	-37.92789	162.89424	-875.82855	-78.79845	141.17526	-725.59692	244.61971	578.14233	-717.86414	-26.50325	567.39807	-675.09491	172.61928	156.43414	-622.23914	-78.28430	158.34659	-632.48883	277.22296	875.96399	-684.05219	270.22635	746.94733	-517.41504	-72.87208	142.87895	-585.09973	-2.30814	801.96320	-717.56281	77.93304	217.15474	-670.87878	18.05993	520.05432	-696.79968	295.35831	1537.85107	-687.10089	142.57687	572.09985							-702.40234	-29.67267	614.69714	
416	8.300	-720.74164	119.72072	1850.65430	-691.60870	-50.97306	717.25269	-718.21332	248.12209	645.87122	-591.10065	-10.58607	1049.70190	-694.30634	79.24848	575.19269	-577.24835	212.24371	812.35236	-654.77570	-71.00831	858.15314	-672.52826	204.72441	532.51404	-766.90631	253.28447	504.75516	-663.96851	-67.60046	163.10382	-576.22266	216.48114	1068.33472	-603.39844	20.30065	166.19682	-675.75458	54.99820	157.22641	-711.03583	151.47220	216.42397	-795.90802	172.20782	183.97916	-770.90717	222.03706	205.96611	-594.47742	222.23624	173.07042	-882.54767	296.21411	144.67567	-560.51190	260.71228	166.16150	-666.88049	299.10291	160.11418	-629.90057	307.27542	162.37018	-528.07770	304.24625	146.45256	-692.15747	-69.24216	1550.69312	-787.51892	98.57431	1057.12891	-767.46075	-5.60136	207.53490	-794.68237	55.22879	174.46103	-764.84509	-36.19065	488.28601	-558.91602	-37.91341	162.78052	-875.98248	-78.81853	141.25104	-725.78210	244.63899	578.09497	-717.90210	-26.45235	567.50238	-674.96930	172.69241	156.49797	-622.23914	-78.28430	158.34659	-632.54932	277.28540	876.03522	-684.39935	270.51825	746.97583	-517.51288	-72.69640	142.76646	-585.23926	-2.21761	801.86005	-717.58911	77.90275	217.47449	-670.67633	18.06148	520.14795	-696.79987	295.83005	1537.81775	-687.32300	142.40965	572.11365							-702.44019	-29.60375	614.71814	
